<svg width="1019" height="213" viewBox="0 0 1019 213" fill="none" xmlns="http://www.w3.org/2000/svg">
<path d="M64.998 200.112C49.4067 200.112 36.8993 195.058 27.476 184.949C18.224 174.669 13.598 160.106 13.598 141.259H48.807C48.807 150.168 50.349 156.679 53.433 160.791C56.517 164.732 60.4577 166.702 65.255 166.702C69.7097 166.702 73.1363 165.417 75.535 162.847C77.9337 160.106 79.133 156.508 79.133 152.053C79.133 146.913 77.848 142.458 75.278 138.689C72.708 134.92 69.367 131.407 65.255 128.152C61.3143 124.897 57.031 121.556 52.405 118.129C46.5797 113.674 40.6687 108.963 34.672 103.994C28.8467 99.0253 23.9637 93.1143 20.023 86.261C16.0823 79.2363 14.112 70.7553 14.112 60.818C14.112 50.8807 16.168 42.314 20.28 35.118C24.5633 27.7507 30.303 22.0967 37.499 18.156C44.8663 14.044 53.176 11.988 62.428 11.988C72.5367 11.988 81.3603 14.301 88.899 18.927C96.609 23.553 102.52 30.1493 106.632 38.716C110.915 47.1113 113.057 56.963 113.057 68.271H77.848C77.848 60.7323 76.4773 55.164 73.736 51.566C71.166 47.7967 67.568 45.912 62.942 45.912C59.0013 45.912 55.8317 47.197 53.433 49.767C51.0343 52.337 49.835 55.678 49.835 59.79C49.835 66.1293 52.3193 71.5263 57.288 75.981C62.428 80.4357 68.853 85.49 76.563 91.144C82.9023 95.77 88.9847 100.567 94.81 105.536C100.635 110.505 105.433 116.416 109.202 123.269C112.971 130.122 114.856 138.689 114.856 148.969C114.856 164.218 110.316 176.554 101.235 185.977C92.3257 195.4 80.2467 200.112 64.998 200.112ZM119.725 196V16.1H156.99V83.948H183.461V16.1H220.983V196H183.461V119.414H156.99V196H119.725ZM279.509 200.112C269.571 200.112 260.748 197.542 253.038 192.402C245.499 187.091 239.502 179.809 235.048 170.557C230.764 161.305 228.623 150.682 228.623 138.689V73.154C228.623 61.1607 230.764 50.6237 235.048 41.543C239.502 32.291 245.499 25.095 253.038 19.955C260.748 14.6437 269.571 11.988 279.509 11.988C289.446 11.988 298.184 14.6437 305.723 19.955C313.433 25.095 319.429 32.291 323.713 41.543C328.167 50.6237 330.395 61.1607 330.395 73.154V138.689C330.395 150.682 328.167 161.305 323.713 170.557C319.429 179.809 313.433 187.091 305.723 192.402C298.184 197.542 289.446 200.112 279.509 200.112ZM279.509 164.132C288.075 164.132 292.359 156.765 292.359 142.03V70.07C292.359 55.3353 288.075 47.968 279.509 47.968C270.942 47.968 266.659 55.3353 266.659 70.07V142.03C266.659 156.765 270.942 164.132 279.509 164.132ZM338.215 196V16.1H384.732C401.865 16.1 414.801 20.0407 423.539 27.922C432.448 35.632 436.903 47.1113 436.903 62.36V77.266C436.903 94.9133 427.822 105.793 409.661 109.905V114.017C419.256 115.73 426.623 119.243 431.763 124.554C436.903 129.865 439.473 137.318 439.473 146.913V196H401.694V142.544C401.694 137.747 400.066 134.063 396.811 131.493C393.556 128.923 389.015 127.638 383.19 127.638H375.48V196H338.215ZM375.48 95.256H381.134C393.127 95.256 399.124 90.2873 399.124 80.35V65.701C399.124 55.935 393.127 51.052 381.134 51.052H375.48V95.256ZM466.079 196V51.566H433.954V16.1H535.212V51.566H503.087V196H466.079Z" fill="black"/>
<path d="M518.352 196L545.337 16.1H592.368L619.61 196H582.345L579.775 171.328H558.701L555.874 196H518.352ZM565.64 109.134L562.556 135.605H575.92L573.093 109.134L571.808 72.383H567.182L565.64 109.134ZM622.782 196V16.1H673.154C689.431 16.1 701.938 20.983 710.676 30.749C719.586 40.3437 724.04 54.136 724.04 72.126V76.495C724.04 94.485 719.586 108.363 710.676 118.129C701.938 127.895 689.431 132.778 673.154 132.778H660.047V196H622.782ZM668.014 51.052H660.047V97.826H668.014C680.008 97.826 686.004 91.3153 686.004 78.294V70.584C686.004 57.5627 680.008 51.052 668.014 51.052ZM728.263 196V16.1H778.635C794.911 16.1 807.419 20.983 816.157 30.749C825.066 40.3437 829.521 54.136 829.521 72.126V76.495C829.521 94.485 825.066 108.363 816.157 118.129C807.419 127.895 794.911 132.778 778.635 132.778H765.528V196H728.263ZM773.495 51.052H765.528V97.826H773.495C785.488 97.826 791.485 91.3153 791.485 78.294V70.584C791.485 57.5627 785.488 51.052 773.495 51.052ZM833.743 196V16.1H871.265V160.534H935.001V196H833.743ZM939.73 196V121.213L907.605 16.1H945.641L958.234 64.416L971.598 16.1H1008.86L976.738 121.213V196H939.73Z" fill="#A6A6A6"/>
</svg>
