<svg width="527" height="394" viewBox="0 0 527 394" fill="none" xmlns="http://www.w3.org/2000/svg">
<path d="M54.998 190.112C39.4067 190.112 26.8993 185.058 17.476 174.949C8.224 164.669 3.598 150.106 3.598 131.259H38.807C38.807 140.168 40.349 146.679 43.433 150.791C46.517 154.732 50.4577 156.702 55.255 156.702C59.7097 156.702 63.1363 155.417 65.535 152.847C67.9337 150.106 69.133 146.508 69.133 142.053C69.133 136.913 67.848 132.458 65.278 128.689C62.708 124.92 59.367 121.407 55.255 118.152C51.3143 114.897 47.031 111.556 42.405 108.129C36.5797 103.674 30.6687 98.9627 24.672 93.994C18.8467 89.0253 13.9637 83.1143 10.023 76.261C6.08233 69.2363 4.112 60.7553 4.112 50.818C4.112 40.8807 6.168 32.314 10.28 25.118C14.5633 17.7507 20.303 12.0967 27.499 8.15599C34.8663 4.04399 43.176 1.98799 52.428 1.98799C62.5367 1.98799 71.3603 4.301 78.899 8.927C86.609 13.553 92.52 20.1493 96.632 28.716C100.915 37.1113 103.057 46.963 103.057 58.271H67.848C67.848 50.7323 66.4773 45.164 63.736 41.566C61.166 37.7967 57.568 35.912 52.942 35.912C49.0013 35.912 45.8317 37.197 43.433 39.767C41.0343 42.337 39.835 45.678 39.835 49.79C39.835 56.1293 42.3193 61.5263 47.288 65.981C52.428 70.4357 58.853 75.49 66.563 81.144C72.9023 85.77 78.9847 90.5673 84.81 95.536C90.6353 100.505 95.4327 106.416 99.202 113.269C102.971 120.122 104.856 128.689 104.856 138.969C104.856 154.218 100.316 166.554 91.235 175.977C82.3257 185.4 70.2467 190.112 54.998 190.112ZM109.725 186V6.09999H146.99V73.948H173.461V6.09999H210.983V186H173.461V109.414H146.99V186H109.725ZM269.509 190.112C259.571 190.112 250.748 187.542 243.038 182.402C235.499 177.091 229.502 169.809 225.048 160.557C220.764 151.305 218.623 140.682 218.623 128.689V63.154C218.623 51.1607 220.764 40.6237 225.048 31.543C229.502 22.291 235.499 15.095 243.038 9.95498C250.748 4.64366 259.571 1.98799 269.509 1.98799C279.446 1.98799 288.184 4.64366 295.723 9.95498C303.433 15.095 309.429 22.291 313.713 31.543C318.167 40.6237 320.395 51.1607 320.395 63.154V128.689C320.395 140.682 318.167 151.305 313.713 160.557C309.429 169.809 303.433 177.091 295.723 182.402C288.184 187.542 279.446 190.112 269.509 190.112ZM269.509 154.132C278.075 154.132 282.359 146.765 282.359 132.03V60.07C282.359 45.3353 278.075 37.968 269.509 37.968C260.942 37.968 256.659 45.3353 256.659 60.07V132.03C256.659 146.765 260.942 154.132 269.509 154.132ZM328.215 186V6.09999H374.732C391.865 6.09999 404.801 10.0407 413.539 17.922C422.448 25.632 426.903 37.1113 426.903 52.36V67.266C426.903 84.9133 417.822 95.793 399.661 99.905V104.017C409.256 105.73 416.623 109.243 421.763 114.554C426.903 119.865 429.473 127.318 429.473 136.913V186H391.694V132.544C391.694 127.747 390.066 124.063 386.811 121.493C383.556 118.923 379.015 117.638 373.19 117.638H365.48V186H328.215ZM365.48 85.256H371.134C383.127 85.256 389.124 80.2873 389.124 70.35V55.701C389.124 45.935 383.127 41.052 371.134 41.052H365.48V85.256ZM456.079 186V41.566H423.954V6.09999H525.212V41.566H493.087V186H456.079Z" fill="white"/>
<path d="M1.028 387L28.013 207.1H75.044L102.286 387H65.021L62.451 362.328H41.377L38.55 387H1.028ZM48.316 300.134L45.232 326.605H58.596L55.769 300.134L54.484 263.383H49.858L48.316 300.134ZM105.458 387V207.1H155.83C172.107 207.1 184.614 211.983 193.352 221.749C202.262 231.344 206.716 245.136 206.716 263.126V267.495C206.716 285.485 202.262 299.363 193.352 309.129C184.614 318.895 172.107 323.778 155.83 323.778H142.723V387H105.458ZM150.69 242.052H142.723V288.826H150.69C162.684 288.826 168.68 282.315 168.68 269.294V261.584C168.68 248.563 162.684 242.052 150.69 242.052ZM210.939 387V207.1H261.311C277.587 207.1 290.095 211.983 298.833 221.749C307.742 231.344 312.197 245.136 312.197 263.126V267.495C312.197 285.485 307.742 299.363 298.833 309.129C290.095 318.895 277.587 323.778 261.311 323.778H248.204V387H210.939ZM256.171 242.052H248.204V288.826H256.171C268.164 288.826 274.161 282.315 274.161 269.294V261.584C274.161 248.563 268.164 242.052 256.171 242.052ZM316.419 387V207.1H353.941V351.534H417.677V387H316.419ZM422.406 387V312.213L390.281 207.1H428.317L440.91 255.416L454.274 207.1H491.539L459.414 312.213V387H422.406Z" fill="#A6A6A6"/>
</svg>
